<svg width="17" height="17" viewBox="0 0 17 17" fill="none" xmlns="http://www.w3.org/2000/svg">
  <path d="M10.202 4.18622C10.387 4.2787 10.5911 4.32684 10.798 4.32684C11.0049 4.32684 11.2089 4.2787 11.394 4.18622L13.8333 2.96622C13.935 2.9154 14.048 2.89143 14.1616 2.8966C14.2752 2.90177 14.3856 2.93592 14.4823 2.99578C14.579 3.05564 14.6587 3.13923 14.714 3.23861C14.7692 3.33799 14.7981 3.44985 14.798 3.56356V12.0729C14.7979 12.1967 14.7634 12.318 14.6983 12.4232C14.6332 12.5285 14.54 12.6136 14.4293 12.6689L11.394 14.1869C11.2089 14.2794 11.0049 14.3275 10.798 14.3275C10.5911 14.3275 10.387 14.2794 10.202 14.1869L7.39398 12.7829C7.20891 12.6904 7.00486 12.6423 6.79798 12.6423C6.59109 12.6423 6.38704 12.6904 6.20198 12.7829L3.76264 14.0029C3.66088 14.0537 3.54779 14.0777 3.43415 14.0725C3.3205 14.0673 3.21008 14.0331 3.11339 13.9732C3.01669 13.9132 2.93695 13.8295 2.88174 13.7301C2.82653 13.6306 2.79769 13.5187 2.79798 13.4049V4.89622C2.79804 4.77245 2.83256 4.65114 2.89768 4.54587C2.96279 4.44061 3.05592 4.35555 3.16664 4.30022L6.20198 2.78222C6.38704 2.68974 6.59109 2.6416 6.79798 2.6416C7.00486 2.6416 7.20891 2.68974 7.39398 2.78222L10.202 4.18622Z" stroke="#71717A" stroke-width="1.33333" stroke-linecap="round" stroke-linejoin="round" />
  <path d="M10.798 4.3269V14.3269" stroke="#71717A" stroke-width="1.33333" stroke-linecap="round" stroke-linejoin="round" />
  <path d="M6.79797 2.6416V12.6416" stroke="#71717A" stroke-width="1.33333" stroke-linecap="round" stroke-linejoin="round" />
</svg>