<svg width="25" height="25" viewBox="0 0 25 25" fill="none" xmlns="http://www.w3.org/2000/svg">
  <path d="M18.598 19.6842L16.798 11.4842L20.298 7.98422C21.798 6.48422 22.298 4.48422 21.798 3.48422C20.798 2.98422 18.798 3.48422 17.298 4.98422L13.798 8.48422L5.59797 6.68422C5.09797 6.58422 4.69797 6.78422 4.49797 7.18422L4.19797 7.68422C3.99797 8.18422 4.09797 8.68422 4.49797 8.98422L9.79797 12.4842L7.79797 15.4842H4.79797L3.79797 16.4842L6.79797 18.4842L8.79797 21.4842L9.79797 20.4842V17.4842L12.798 15.4842L16.298 20.7842C16.598 21.1842 17.098 21.2842 17.598 21.0842L18.098 20.8842C18.498 20.5842 18.698 20.1842 18.598 19.6842Z" stroke="#18181B" stroke-width="2" stroke-linecap="round" stroke-linejoin="round" />
</svg>