<svg width="381" height="21" viewBox="0 0 381 21" fill="none" xmlns="http://www.w3.org/2000/svg">
<path d="M10.798 2.15088L13.373 7.36755L19.1313 8.20921L14.9647 12.2675L15.948 18.0009L10.798 15.2925L5.64799 18.0009L6.63133 12.2675L2.46466 8.20921L8.22299 7.36755L10.798 2.15088Z" fill="#FACC15" stroke="#FACC15" stroke-width="1.66667" stroke-linecap="round" stroke-linejoin="round"/>
<path d="M30.798 2.15088L33.373 7.36755L39.1313 8.20921L34.9647 12.2675L35.948 18.0009L30.798 15.2925L25.648 18.0009L26.6313 12.2675L22.4647 8.20921L28.223 7.36755L30.798 2.15088Z" fill="#FACC15" stroke="#FACC15" stroke-width="1.66667" stroke-linecap="round" stroke-linejoin="round"/>
<path d="M50.798 2.15088L53.373 7.36755L59.1313 8.20921L54.9647 12.2675L55.948 18.0009L50.798 15.2925L45.648 18.0009L46.6313 12.2675L42.4647 8.20921L48.223 7.36755L50.798 2.15088Z" fill="#FACC15" stroke="#FACC15" stroke-width="1.66667" stroke-linecap="round" stroke-linejoin="round"/>
<path d="M70.798 2.15088L73.373 7.36755L79.1313 8.20921L74.9647 12.2675L75.948 18.0009L70.798 15.2925L65.648 18.0009L66.6313 12.2675L62.4647 8.20921L68.223 7.36755L70.798 2.15088Z" fill="#FACC15" stroke="#FACC15" stroke-width="1.66667" stroke-linecap="round" stroke-linejoin="round"/>
<path d="M90.798 2.15088L93.373 7.36755L99.1313 8.20921L94.9647 12.2675L95.948 18.0009L90.798 15.2925L85.648 18.0009L86.6313 12.2675L82.4647 8.20921L88.223 7.36755L90.798 2.15088Z" fill="#FACC15" stroke="#FACC15" stroke-width="1.66667" stroke-linecap="round" stroke-linejoin="round"/>
</svg>
