<svg width="110" height="21" viewBox="0 0 110 21" fill="none" xmlns="http://www.w3.org/2000/svg">
<path d="M8.79795 3.81763L10.858 7.99096L15.4646 8.66429L12.1313 11.911L12.918 16.4976L8.79795 14.331L4.67795 16.4976L5.46462 11.911L2.13129 8.66429L6.73795 7.99096L8.79795 3.81763Z" fill="#FACC15" stroke="#FACC15" stroke-width="1.33333" stroke-linecap="round" stroke-linejoin="round"/>
<path d="M24.798 3.81763L26.858 7.99096L31.4646 8.66429L28.1313 11.911L28.918 16.4976L24.798 14.331L20.678 16.4976L21.4646 11.911L18.1313 8.66429L22.738 7.99096L24.798 3.81763Z" fill="#FACC15" stroke="#FACC15" stroke-width="1.33333" stroke-linecap="round" stroke-linejoin="round"/>
<path d="M40.798 3.81763L42.858 7.99096L47.4646 8.66429L44.1313 11.911L44.918 16.4976L40.798 14.331L36.678 16.4976L37.4646 11.911L34.1313 8.66429L38.738 7.99096L40.798 3.81763Z" fill="#FACC15" stroke="#FACC15" stroke-width="1.33333" stroke-linecap="round" stroke-linejoin="round"/>
<path d="M56.798 3.81763L58.858 7.99096L63.4646 8.66429L60.1313 11.911L60.918 16.4976L56.798 14.331L52.678 16.4976L53.4646 11.911L50.1313 8.66429L54.738 7.99096L56.798 3.81763Z" fill="#FACC15" stroke="#FACC15" stroke-width="1.33333" stroke-linecap="round" stroke-linejoin="round"/>
<path d="M72.798 3.81763L74.858 7.99096L79.4646 8.66429L76.1313 11.911L76.918 16.4976L72.798 14.331L68.678 16.4976L69.4646 11.911L66.1313 8.66429L70.738 7.99096L72.798 3.81763Z" fill="#FACC15" stroke="#FACC15" stroke-width="1.33333" stroke-linecap="round" stroke-linejoin="round"/>
<path d="M94.272 15.4843V13.3283H89.218V12.2363L94.188 5.54425H95.476V12.1523H96.708V13.3283H95.476V15.4843H94.272ZM90.674 12.1523H94.272V7.39225L90.674 12.1523ZM98.0273 15.4843V13.9023H99.6093V15.4843H98.0273ZM104.26 15.7083C103.438 15.7083 102.766 15.5076 102.244 15.1063C101.73 14.6956 101.38 14.1823 101.194 13.5663L102.468 13.4683C102.58 13.8043 102.785 14.0656 103.084 14.2523C103.382 14.4389 103.774 14.5323 104.26 14.5323C105.09 14.5323 105.725 14.2009 106.164 13.5383C106.612 12.8663 106.84 11.7883 106.85 10.3043L107.144 10.3603C106.91 10.9856 106.551 11.4709 106.066 11.8163C105.58 12.1523 105.016 12.3203 104.372 12.3203C103.728 12.3203 103.158 12.1756 102.664 11.8863C102.169 11.5969 101.777 11.1909 101.488 10.6683C101.208 10.1456 101.068 9.53892 101.068 8.84825C101.068 8.12025 101.217 7.49492 101.516 6.97225C101.814 6.44025 102.22 6.03425 102.734 5.75425C103.256 5.46492 103.854 5.32025 104.526 5.32025C105.356 5.32025 106.033 5.51159 106.556 5.89425C107.088 6.27692 107.48 6.81359 107.732 7.50425C107.984 8.18559 108.11 8.99292 108.11 9.92625C108.11 10.7569 108.044 11.5269 107.914 12.2363C107.783 12.9363 107.568 13.5476 107.27 14.0703C106.971 14.5836 106.574 14.9849 106.08 15.2743C105.594 15.5636 104.988 15.7083 104.26 15.7083ZM104.456 11.1303C104.913 11.1303 105.314 11.0416 105.66 10.8643C106.005 10.6869 106.276 10.4303 106.472 10.0943C106.677 9.75825 106.78 9.35225 106.78 8.87625C106.78 8.41892 106.686 8.01292 106.5 7.65825C106.322 7.29425 106.066 7.00959 105.73 6.80425C105.394 6.59892 104.992 6.49625 104.526 6.49625C104.068 6.49625 103.676 6.59892 103.35 6.80425C103.023 7.00025 102.771 7.27559 102.594 7.63025C102.416 7.98492 102.328 8.39092 102.328 8.84825C102.328 9.31492 102.416 9.72092 102.594 10.0663C102.78 10.4023 103.032 10.6636 103.35 10.8503C103.667 11.0369 104.036 11.1303 104.456 11.1303Z" fill="#71717A"/>
</svg>
